<svg id="I117:57137;29:20528;210:217" layer-name="atv" style="width:32px;height:32px;flex-shrink:0;position:absolute;left:0px;top:0px" width="32" height="32" viewBox="0 0 32 32" fill="none" xmlns="http://www.w3.org/2000/svg">
<path d="M3 4C2.44728 4 2 4.44728 2 5V7C2 7.55272 2.44728 8 3 8H4V10H3C1.34272 10 0 8.65728 0 7V5C0 3.34272 1.34272 2 3 2H29C30.6573 2 32 3.34272 32 5V7C32 8.65728 30.6573 10 29 10H28V8H29C29.5527 8 30 7.55272 30 7V5C30 4.44728 29.5527 4 29 4H3Z" fill="#1BA136"/>
<path d="M6 6H8V24H20V6H22V26H6V6Z" fill="#1BA136"/>
<path fill-rule="evenodd" clip-rule="evenodd" d="M14 8C11.7907 8 10 9.79072 10 12C10 14.2093 11.7907 16 14 16C16.2093 16 18 14.2093 18 12C18 9.79072 16.2093 8 14 8ZM12 12C12 10.8953 12.8953 10 14 10C15.1047 10 16 10.8953 16 12C16 13.1047 15.1047 14 14 14C12.8953 14 12 13.1047 12 12Z" fill="#1BA136"/>
<path d="M26 30V8H24V28H10V30H26Z" fill="#1BA136"/>
<path d="M10 22H13V20H10V22Z" fill="#1BA136"/>
</svg>