<svg id="I121:13294;1349:71474;1193:50799;1020:8562;1023:9969;4290:1841;3807:597" layer-name="color 1" data-component-name="16/C1/crown-badge_C1" style="width:16px;height:16px;flex-shrink:0;position:absolute;left:0px;top:0px" width="16" height="16" viewBox="0 0 16 16" fill="none" xmlns="http://www.w3.org/2000/svg">
<path d="M7.42236 0.410057C7.76882 0.164421 8.23264 0.164421 8.5791 0.410058L9.49976 1.06279C9.69484 1.2011 9.93303 1.26493 10.1711 1.24269L11.2948 1.13773C11.7177 1.09823 12.1194 1.33015 12.2966 1.7161L12.7675 2.74172C12.8673 2.95904 13.0417 3.13341 13.259 3.2332L14.2846 3.70414C14.6706 3.88137 14.9025 4.28305 14.863 4.70591L14.758 5.8296C14.7358 6.0677 14.7996 6.30588 14.9379 6.50097L15.5907 7.42163C15.8363 7.76809 15.8363 8.23191 15.5907 8.57837L14.9379 9.49903C14.7996 9.69411 14.7358 9.9323 14.758 10.1704L14.863 11.2941C14.9025 11.7169 14.6706 12.1186 14.2846 12.2959L13.259 12.7668C13.0417 12.8666 12.8673 13.041 12.7675 13.2583L12.2966 14.2839C12.1194 14.6699 11.7177 14.9018 11.2948 14.8623L10.1711 14.7573C9.93303 14.7351 9.69484 14.7989 9.49976 14.9372L8.5791 15.5899C8.23264 15.8356 7.76882 15.8356 7.42236 15.5899L6.5017 14.9372C6.30662 14.7989 6.06843 14.7351 5.83033 14.7573L4.70665 14.8623C4.28378 14.9018 3.8821 14.6699 3.70487 14.2839L3.23393 13.2583C3.13414 13.041 2.95977 12.8666 2.74245 12.7668L1.71684 12.2959C1.33088 12.1186 1.09897 11.7169 1.13846 11.2941L1.24342 10.1704C1.26566 9.9323 1.20184 9.69411 1.06353 9.49903L0.41079 8.57837C0.165153 8.23191 0.165154 7.76809 0.41079 7.42163L1.06353 6.50097C1.20184 6.30588 1.26566 6.0677 1.24342 5.8296L1.13846 4.70591C1.09897 4.28305 1.33088 3.88137 1.71684 3.70414L2.74245 3.2332C2.95977 3.13341 3.13414 2.95904 3.23393 2.74172L3.70488 1.7161C3.8821 1.33014 4.28378 1.09823 4.70665 1.13773L5.83033 1.24269C6.06843 1.26493 6.30662 1.2011 6.5017 1.06279L7.42236 0.410057Z" fill="#1BA136"/>
</svg>