<svg id="I117:47974;4244:114880;4169:106734;29:20528" layer-name="Entertainment & Catering/Eat" data-component-name="Entertainment & Catering/Eat" style="width:32px;height:32px;flex-shrink:0;position:absolute;left:0px;top:0px" width="32" height="32" viewBox="0 0 32 32" fill="none" xmlns="http://www.w3.org/2000/svg">
<path fill-rule="evenodd" clip-rule="evenodd" d="M4 2H6V10C6 11.1852 6.2115 11.7654 7.52157 13.1053L8.02463 13.6104L7.17326 28.0919C7.11509 29.0779 7.85878 29.9165 8.82541 29.9941L8.972 30H9.028C10.0155 30 10.809 29.2083 10.8295 28.2384L10.8267 28.0917L9.97537 13.6104L10.4873 13.0962L10.8319 12.733C11.7275 11.7557 11.9569 11.1908 11.9941 10.3093L12 10V2H14V10C14 11.6142 13.6341 12.6636 12.1424 14.2579L12.024 14.381L12.8233 27.9741C12.9482 30.0921 11.3192 31.8881 9.2256 31.995L8.972 32C6.85063 32 5.15351 30.2682 5.17011 28.1719L5.17672 27.9743L5.975 14.381L5.8576 14.2579C4.43374 12.7361 4.03559 11.7107 4.00234 10.2167L4 10V2ZM22 2C25.5942 2 28 5.43685 28 10C28 12.1354 27.0438 14.1137 25.3529 15.3442L25.1377 15.4941L25.022 15.567L25.1859 18.3874L25.7998 27.948C25.9406 30.0753 24.3083 31.8871 22.1771 31.9945L21.9759 31.9995L21.773 31.993C19.7365 31.8699 18.1672 30.1603 18.2038 28.1348L18.2124 27.9379L18.5472 23.0027L18.7625 19.6546L18.9294 16.7897L18.986 15.572L18.8623 15.4941C17.1867 14.3776 16.1749 12.5545 16.0207 10.5417L16.005 10.2661L16 10C16 5.43685 18.4058 2 22 2ZM22 4C19.6942 4 18 6.4203 18 10C18 11.6823 18.8221 13.1942 20.2489 14.0001L20.4472 14.1056L21 14.382V15L20.998 15.1868L20.976 15.86L20.9061 17.2777L20.7932 19.2184L20.4795 24.0873L20.2076 28.076C20.142 29.0254 20.8247 29.85 21.7204 29.9805L21.8635 29.9953L22.006 30C23.0009 30 23.7975 29.1977 23.8081 28.2203L23.8041 28.0795L23.3719 21.4173L23.0549 16.2229L23.0013 15.0892L23 14.382L23.5528 14.1056C25.1014 13.3312 26 11.7588 26 10C26 6.4203 24.3058 4 22 4ZM10 2V10H8V2H10Z" fill="#1BA136"/>
</svg>