<svg id="I122:15920;1224:53318;1020:8786;1023:9901;4291:1926;3659:19" layer-name="path" style="width:16px;height:16px;flex-shrink:0;fill:#1BA136;position:absolute;left:0px;top:0px" width="16" height="16" viewBox="0 0 16 16" fill="none" xmlns="http://www.w3.org/2000/svg">
<path d="M7.42054 0.409798C7.767 0.164192 8.23132 0.164172 8.57777 0.409798L9.49769 1.06312C9.69277 1.20143 9.93146 1.26505 10.1696 1.24281L11.2936 1.13734C11.7163 1.09806 12.1174 1.33063 12.2946 1.71644L12.7662 2.74183C12.866 2.95905 13.0402 3.13328 13.2575 3.23304L14.2828 3.70374C14.6687 3.88094 14.9004 4.28291 14.861 4.7057L14.7565 5.82972C14.7343 6.06767 14.798 6.30561 14.9362 6.50062L15.5885 7.42152C15.8341 7.76798 15.8341 8.23228 15.5885 8.57874L14.9362 9.49867C14.7979 9.69375 14.7342 9.93244 14.7565 10.1705L14.861 11.2946C14.9003 11.7173 14.6686 12.1184 14.2828 12.2955L13.2575 12.7672C13.0402 12.867 12.866 13.0411 12.7662 13.2584L12.2946 14.2838C12.1174 14.6696 11.7163 14.9013 11.2936 14.8619L10.1696 14.7575C9.93146 14.7352 9.69277 14.7988 9.49769 14.9371L8.57777 15.5895C8.23131 15.8351 7.767 15.8351 7.42054 15.5895L6.49964 14.9371C6.30464 14.799 6.0667 14.7352 5.82874 14.7575L4.70472 14.8619C4.28194 14.9013 3.87996 14.6697 3.70277 14.2838L3.23206 13.2584C3.13231 13.0412 2.95807 12.867 2.74085 12.7672L1.71546 12.2955C1.32965 12.1184 1.09709 11.7172 1.13636 11.2946L1.24183 10.1705C1.26407 9.93244 1.20045 9.69375 1.06214 9.49867L0.408821 8.57874C0.163195 8.2323 0.163216 7.76797 0.408821 7.42152L1.06214 6.50062C1.20024 6.30564 1.26403 6.06763 1.24183 5.82972L1.13636 4.7057C1.09699 4.28294 1.32959 3.88093 1.71546 3.70374L2.74085 3.23304C2.95806 3.13326 3.13228 2.95904 3.23206 2.74183L3.70277 1.71644C3.87995 1.33057 4.28196 1.09797 4.70472 1.13734L5.82874 1.24281C6.06665 1.265 6.30466 1.20122 6.49964 1.06312L7.42054 0.409798ZM5.99866 5.99964L3.99866 4.99964L4.99866 10.9996H10.9987L11.9987 4.99964L9.99866 5.99964L7.99866 3.99964L5.99866 5.99964Z" fill="#1BA136"/>
</svg>