<svg id="I119:64101;3084:1951" layer-name="Dictation" style="width:15px;height:25px;flex-shrink:0;fill:#50555C;position:absolute;left:327px;top:233px" width="15" height="25" viewBox="0 0 15 25" fill="none" xmlns="http://www.w3.org/2000/svg">
<path d="M14.167 10.332C14.6269 10.3322 14.9998 10.7051 15 11.165C15 11.1865 14.9987 11.2084 14.9971 11.2295V13.2822H14.9863C14.9888 17.1106 12.1282 20.3364 8.32715 20.79V23.3232H11.4668V23.334C11.4778 23.3336 11.4889 23.333 11.5 23.333C11.9602 23.333 12.333 23.7067 12.333 24.167C12.3328 24.6271 11.9601 25 11.5 25C11.4889 25 11.4778 24.9985 11.4668 24.998V25H3.53028V24.998C3.52022 24.9984 3.51015 25 3.50001 25C3.03991 25 2.66722 24.6271 2.667 24.167C2.667 23.7067 3.03977 23.333 3.50001 23.333C3.51014 23.333 3.52023 23.3336 3.53028 23.334V23.3232H6.67676V20.79C2.86744 20.3473 -0.00451917 17.1176 5.33851e-06 13.2822C1.67857e-05 13.2457 0.00517989 13.2119 0.00586471 13.1787V11.2627C0.00216442 11.2309 1.51612e-05 11.1979 5.33851e-06 11.165C0.000228028 10.7051 0.373068 10.3322 0.833013 10.332C1.29311 10.332 1.66677 10.7049 1.667 11.165C1.66698 11.1879 1.6649 11.211 1.66309 11.2334V13.542H1.65821V13.5488C1.65823 13.5786 1.66273 13.6089 1.66309 13.6387V13.9521H1.67872C1.92651 16.9159 4.35126 19.2269 7.32325 19.3301H7.66016C10.6333 19.2288 13.0598 16.917 13.3066 13.9521H13.3272V11.1758L13.333 11.1748C13.333 11.1718 13.333 11.1681 13.333 11.165C13.3332 10.7049 13.7069 10.332 14.167 10.332ZM7.49708 0C9.48362 2.99712e-05 11.227 1.32364 11.7607 3.2373C11.8861 3.67551 11.9643 4.12626 11.9941 4.58105C12.0241 5.08444 11.9941 7.16499 11.9941 7.66504V11.8789C11.9941 12.3821 11.9934 12.9119 11.9668 13.415C11.9463 13.869 11.8767 14.3197 11.7598 14.7588C11.4989 15.6803 10.9428 16.4907 10.1768 17.0654C8.60523 18.3055 6.38795 18.3055 4.81641 17.0654C4.04842 16.4925 3.49124 15.6814 3.23243 14.7588C3.11501 14.3199 3.04607 13.869 3.02637 13.415C2.9974 12.9119 3 12.3821 3.00001 11.8789V4.58105C3.01319 4.12443 3.09184 3.67163 3.2334 3.2373C3.76718 1.32364 5.51052 0 7.49708 0ZM9.17969 2.24414C8.19043 1.47537 6.8056 1.47523 5.81641 2.24414C5.33177 2.61785 4.98298 3.14062 4.82325 3.73145C4.74729 4.01249 4.69898 4.30033 4.67969 4.59082C4.65303 4.94418 4.67286 8.23142 4.67286 12.665C4.67286 12.9851 4.6767 13.0921 4.69336 13.4121C4.70651 13.7026 4.74996 13.9911 4.82325 14.2725C4.98298 14.8631 5.33193 15.3851 5.81641 15.7588C6.80566 16.5277 8.19042 16.5277 9.17969 15.7588C9.66244 15.384 10.0103 14.8624 10.1699 14.2725C10.2448 13.9914 10.2883 13.7027 10.2998 13.4121C10.3198 13.0921 10.3272 12.9851 10.3272 12.665C10.3272 8.21808 10.3534 4.97085 10.3301 4.59082C10.3084 4.29935 10.2545 4.01121 10.1699 3.73145C10.0103 3.1414 9.66251 2.61896 9.17969 2.24414Z" fill="#50555C"/>
</svg>