<svg id="I119:64101;3084:1980" layer-name="Delete Button" style="width:23px;height:17px;flex-shrink:0;fill:#000;position:absolute;left:10px;top:13px" width="24" height="18" viewBox="0 0 24 18" fill="none" xmlns="http://www.w3.org/2000/svg">
<path d="M18.3378 0.662842C18.5821 0.662842 18.6935 0.664443 18.8183 0.669678C19.1953 0.67427 19.5716 0.706305 19.955 0.767334C20.355 0.83818 20.7433 0.966339 21.1103 1.15015C21.4795 1.33822 21.8163 1.58436 22.1064 1.87671C22.3974 2.16767 22.642 2.50191 22.8329 2.87476C23.0146 3.23993 23.1424 3.63012 23.2148 4.04175C23.274 4.41323 23.3063 4.78855 23.3105 5.14722C23.3135 5.22303 23.3148 5.29966 23.3163 5.40112C23.3169 5.44155 23.3168 5.44169 23.3173 5.4812C23.3183 5.55864 23.3193 5.59374 23.3202 5.64819V12.6375C23.3194 12.6802 23.3183 12.7149 23.3173 12.7937C23.3151 12.9595 23.3138 13.0346 23.3105 13.113C23.3064 13.4942 23.2736 13.8747 23.2108 14.2537C23.1417 14.6592 23.0131 15.053 22.8261 15.4275C22.6366 15.7962 22.3907 16.1331 22.0985 16.4265C21.8046 16.722 21.4651 16.9693 21.0937 17.158C20.7251 17.3452 20.3302 17.4752 19.9198 17.5447C19.5453 17.6063 19.1663 17.6405 18.788 17.6472C18.7185 17.6486 18.6639 17.6499 18.5429 17.6511C18.426 17.6523 18.374 17.6527 18.2978 17.6541H10.8769C10.8141 17.6528 10.7622 17.6523 10.6464 17.6511C10.5267 17.6499 10.4728 17.6495 10.4081 17.6482C10.0313 17.6428 9.65476 17.6087 9.2753 17.5466C8.87379 17.4759 8.48434 17.3481 8.11026 17.1619C7.74503 16.9727 7.41139 16.728 7.121 16.4373C7.10711 16.4234 7.0856 16.4018 7.04971 16.364C7.04263 16.3566 7.02046 16.3335 7.00576 16.3191C6.8665 16.1846 6.80421 16.1244 6.72744 16.0476C6.72744 16.0476 4.25393 13.5759 4.22647 13.5496C4.16807 13.4946 4.10998 13.436 4.05459 13.3777C4.00266 13.3281 3.95741 13.2834 3.86612 13.1921L1.91202 11.2351L1.72647 11.0496C1.67604 10.9991 1.63865 10.9605 1.57608 10.8933C1.41057 10.7307 1.25413 10.5584 1.10733 10.3787C0.970833 10.2331 0.86085 10.0646 0.783109 9.88062L0.764554 9.82886C0.6231 9.39192 0.622287 8.92127 0.781156 8.43726C0.858333 8.25116 0.969069 8.08059 1.10733 7.93433C1.25397 7.75334 1.41107 7.58185 1.55948 7.43823C1.63902 7.35371 1.67607 7.3148 1.72647 7.2644C1.8168 7.17407 1.85611 7.13447 1.91202 7.07593L4.05557 4.93237C4.09422 4.89372 4.11326 4.87531 4.13662 4.85229C4.16889 4.82051 4.19788 4.79172 4.2128 4.77808C4.23261 4.75826 4.2527 4.74026 4.27139 4.72534L6.40616 2.58765L6.72744 2.26636C6.8042 2.18961 6.86649 2.12934 7.00576 1.99487C7.00725 1.9934 7.04327 1.95775 7.05166 1.94897C7.08598 1.91285 7.1064 1.89034 7.12002 1.87671C7.41066 1.58572 7.74478 1.34097 8.11905 1.14722C8.48417 0.965567 8.87398 0.837644 9.28506 0.765381C9.65692 0.705784 10.0329 0.673525 10.3915 0.669678C10.5338 0.663989 10.6449 0.662754 10.8788 0.662842C11.0404 0.66015 11.1689 0.659913 11.4521 0.659912H18.0595C18.1644 0.660354 18.2579 0.661426 18.3378 0.662842ZM10.8896 1.92163C10.6622 1.92163 10.5624 1.92322 10.4247 1.92847C10.11 1.93205 9.79538 1.95838 9.49405 2.00659C9.21139 2.05632 8.93724 2.14704 8.68936 2.27026C8.43917 2.39984 8.21003 2.56675 8.01065 2.76636C8.00902 2.76798 8.00049 2.77747 7.96084 2.81909C7.91366 2.86849 7.89236 2.89126 7.86807 2.91284C7.74273 3.0339 7.68479 3.08928 7.61709 3.15698L7.29678 3.47729L5.12491 5.6521C5.10188 5.67513 5.07833 5.69563 5.01944 5.74878C4.99913 5.76879 4.98263 5.78461 4.94522 5.82202L4.75674 6.01147L2.81338 7.95386C2.75869 8.01142 2.71503 8.05611 2.61709 8.15405C2.57849 8.19266 2.54737 8.22584 2.45694 8.32104C2.31997 8.45434 2.19079 8.59579 2.07119 8.74487L2.02823 8.7937C1.9978 8.82458 1.97284 8.86023 1.95401 8.89917C1.90522 9.06689 1.90462 9.24504 1.95303 9.41284C1.97301 9.45348 1.99951 9.49065 2.03116 9.52319L2.06924 9.56616C2.19079 9.7162 2.32066 9.8596 2.47549 10.0125C2.54668 10.0881 2.57847 10.1213 2.61709 10.1599L2.80264 10.3455L4.75674 12.3025C4.84719 12.3929 4.88698 12.432 4.95889 12.5017C4.99375 12.5387 5.031 12.5765 5.07608 12.6199C5.08559 12.6283 5.0994 12.6413 5.12198 12.6619L7.61709 15.157C7.6848 15.2247 7.7427 15.281 7.86807 15.4021C7.89213 15.4235 7.91347 15.4452 7.96182 15.4958C8.00023 15.5362 8.00972 15.5457 8.01162 15.5476C8.2107 15.7469 8.43953 15.9149 8.68057 16.0398C8.93739 16.1675 9.2113 16.258 9.48623 16.3064C9.79699 16.3572 10.1112 16.3848 10.4296 16.3894C10.4923 16.3907 10.5434 16.3912 10.6591 16.3923C10.7791 16.3935 10.8338 16.394 10.8896 16.3953H18.2851C18.3545 16.3939 18.4091 16.3935 18.5302 16.3923C18.6473 16.3912 18.6992 16.3907 18.7646 16.3894C19.0831 16.3838 19.4013 16.3547 19.7128 16.3035C19.9948 16.2557 20.2682 16.1655 20.5233 16.0359C20.7756 15.9078 21.0061 15.7397 21.206 15.5388C21.407 15.337 21.5761 15.1051 21.703 14.8582C21.8314 14.601 21.9208 14.3261 21.9687 14.0457C22.0204 13.7331 22.0488 13.4166 22.0526 13.0818L22.0614 12.6248V5.66089C22.0605 5.61523 22.0596 5.57809 22.0585 5.4978C22.058 5.45864 22.0581 5.45842 22.0575 5.41968C22.0562 5.3279 22.0547 5.26118 22.0517 5.18042C22.0478 4.86538 22.0215 4.55097 21.9735 4.24976C21.9238 3.96708 21.8334 3.69254 21.7089 3.44214C21.5811 3.19279 21.4146 2.96527 21.2148 2.76538C21.0172 2.56629 20.789 2.39961 20.5429 2.27417C20.2884 2.14669 20.0163 2.05637 19.747 2.00854C19.4346 1.95888 19.1188 1.93179 18.7851 1.92749C18.6652 1.9227 18.5658 1.92172 18.328 1.92163C18.2432 1.92022 18.154 1.91912 18.0536 1.9187H11.4521C11.176 1.9187 11.0522 1.91901 10.8896 1.92163ZM16.9003 5.80249C17.0615 5.64059 17.3044 5.59128 17.5155 5.67847C17.7265 5.76563 17.864 5.97169 17.8642 6.19995C17.8642 6.35205 17.8023 6.49368 17.6991 6.59741L17.706 6.60425L15.1601 9.15112L17.664 11.6511C17.6788 11.6631 17.6951 11.6736 17.7089 11.6873C17.8708 11.8484 17.9191 12.0913 17.8319 12.3025C17.7447 12.5136 17.5389 12.6511 17.3105 12.6511C17.158 12.651 17.0167 12.5888 16.913 12.4851L16.9062 12.4929L14.3612 9.95093L11.8202 12.4958L11.8114 12.4871C11.7605 12.5369 11.7011 12.5789 11.6327 12.6072C11.4207 12.6947 11.1764 12.6457 11.0146 12.4832C10.795 12.2622 10.795 11.9052 11.0146 11.6843C11.0451 11.6537 11.0795 11.6277 11.1151 11.6052L13.5634 9.15405L11.0146 6.60815L11.0233 6.59839C10.9737 6.54756 10.9314 6.48795 10.9032 6.41968C10.8159 6.2079 10.8651 5.96422 11.0272 5.80249C11.2483 5.58244 11.606 5.58244 11.8271 5.80249C11.8572 5.83251 11.882 5.86619 11.9042 5.90112L14.3622 8.35425L16.8456 5.86792C16.8622 5.84522 16.88 5.82307 16.9003 5.80249Z" fill="black"/>
</svg>