<svg id="I119:64101;3084:1993" layer-name="Shift" style="width:19px;height:16px;flex-shrink:0;fill:#000;position:absolute;left:12px;top:12px" width="20" height="17" viewBox="0 0 20 17" fill="none" xmlns="http://www.w3.org/2000/svg">
<path d="M18.8002 10.6642H14.6031V14.6333C14.6031 14.7133 14.6031 14.7866 14.6031 14.8633C14.6031 14.9299 14.6031 14.9933 14.6005 15.0599C14.5986 15.2028 14.5863 15.3454 14.5635 15.4865C14.5387 15.6266 14.4938 15.7624 14.4302 15.8897C14.3651 16.0169 14.28 16.1328 14.1782 16.233C14.076 16.3332 13.9593 16.4174 13.832 16.4829C13.7031 16.5457 13.5661 16.5905 13.4251 16.6162C13.2836 16.6384 13.1407 16.6507 12.9975 16.6529C12.9309 16.6529 12.8662 16.6562 12.8009 16.6562H7.40177C7.33512 16.6562 7.2708 16.6529 7.20515 16.6529C7.06194 16.6507 6.91907 16.6384 6.77758 16.6162C6.63661 16.5905 6.49982 16.5457 6.37101 16.4829C6.24371 16.4174 6.12699 16.3332 6.02475 16.233C5.92292 16.1328 5.83785 16.0169 5.77281 15.8897C5.7092 15.7624 5.6643 15.6266 5.6395 15.4865C5.61658 15.3454 5.6041 15.2028 5.60218 15.0599C5.60218 14.9933 5.59951 14.9299 5.59951 14.8633C5.59951 14.7866 5.59951 14.7133 5.59951 14.6333V10.6642H1.33615C0.90491 10.6642 0.351702 9.73446 0.869585 9.21791C1.30982 8.78134 8.22892 1.8829 9.67692 0.446562C9.78333 0.3158 9.93362 0.228157 10.0998 0.199951H10.1112C10.2549 0.207749 10.3885 0.276932 10.4777 0.389908C11.9257 1.82625 18.8685 8.78134 19.3091 9.21791C19.8273 9.73446 19.3934 10.6642 18.8002 10.6642Z" fill="black"/>
</svg>