<svg id="I119:66939;119:67499;3807:597" layer-name="color 1" data-component-name="16/C1/crown-badge_C1" style="width:16px;height:16px;flex-shrink:0;position:absolute;left:0px;top:0px" width="16" height="16" viewBox="0 0 16 16" fill="none" xmlns="http://www.w3.org/2000/svg">
<path d="M7.42187 0.410546C7.76833 0.164909 8.23215 0.164909 8.57862 0.410546L9.49927 1.06328C9.69436 1.20159 9.93254 1.26541 10.1706 1.24317L11.2943 1.13822C11.7172 1.09872 12.1189 1.33063 12.2961 1.71659L12.767 2.74221C12.8668 2.95953 13.0412 3.13389 13.2585 3.23368L14.2841 3.70463C14.6701 3.88186 14.902 4.28354 14.8625 4.7064L14.7576 5.83008C14.7353 6.06818 14.7991 6.30637 14.9374 6.50146L15.5902 7.42211C15.8358 7.76858 15.8358 8.2324 15.5902 8.57886L14.9374 9.49952C14.7991 9.6946 14.7353 9.93279 14.7576 10.1709L14.8625 11.2946C14.902 11.7174 14.6701 12.1191 14.2841 12.2963L13.2585 12.7673C13.0412 12.8671 12.8668 13.0414 12.767 13.2588L12.2961 14.2844C12.1189 14.6703 11.7172 14.9023 11.2943 14.8628L10.1706 14.7578C9.93254 14.7356 9.69436 14.7994 9.49927 14.9377L8.57862 15.5904C8.23215 15.8361 7.76833 15.8361 7.42187 15.5904L6.50121 14.9377C6.30613 14.7994 6.06794 14.7356 5.82984 14.7578L4.70616 14.8628C4.2833 14.9023 3.88161 14.6703 3.70439 14.2844L3.23344 13.2588C3.13365 13.0414 2.95928 12.8671 2.74196 12.7673L1.71635 12.2963C1.33039 12.1191 1.09848 11.7174 1.13797 11.2946L1.24293 10.1709C1.26517 9.93279 1.20135 9.6946 1.06304 9.49952L0.410301 8.57886C0.164665 8.2324 0.164665 7.76857 0.410302 7.42211L1.06304 6.50145C1.20135 6.30637 1.26517 6.06818 1.24293 5.83008L1.13797 4.7064C1.09848 4.28354 1.33039 3.88186 1.71635 3.70463L2.74196 3.23368C2.95928 3.13389 3.13365 2.95953 3.23344 2.74221L3.70439 1.71659C3.88161 1.33063 4.2833 1.09872 4.70616 1.13822L5.82984 1.24318C6.06794 1.26541 6.30613 1.20159 6.50121 1.06328L7.42187 0.410546Z" fill="#1BA136"/>
</svg>