<svg id="119:67236" layer-name="Health & Sport/icerink" data-component-name="Health & Sport/icerink" style="width:32px;height:32px;flex-shrink:0;position:absolute;left:0px;top:0px" width="32" height="32" viewBox="0 0 32 32" fill="none" xmlns="http://www.w3.org/2000/svg">
<path fill-rule="evenodd" clip-rule="evenodd" d="M4.5 27H10V24H6H5H4.5C3.673 24 3 24.673 3 25.5C3 26.327 3.673 27 4.5 27ZM7 22H26C26.552 22 27 21.552 27 21V5H17.802L16.913 9H21V11H16.47L16.223 12.111C15.993 13.135 15.235 13.975 14.243 14.307L13.265 14.633L14.448 18.184L12.552 18.816L11.368 15.265L9.052 16.036C7.824 16.446 7 17.59 7 18.883V22ZM12 27H21V24H12V27ZM30.316 27.948C28.223 28.646 26.043 29 23.838 29H4.5C2.57 29 1 27.43 1 25.5C1 23.57 2.57 22 4.5 22H5V18.883C5 16.728 6.374 14.821 8.419 14.14L13.609 12.41C13.94 12.299 14.193 12.018 14.271 11.677L16.198 3H29V21C29 22.654 27.654 24 26 24H23V27H23.838C25.827 27 27.794 26.681 29.684 26.052L30.316 27.948ZM25 15V17C24.505 17 23 17 23 20H21C21 16.869 22.495 15 25 15Z" fill="#1BA136"/>
</svg>