<svg width="24" height="24" viewBox="0 0 24 24" fill="none" xmlns="http://www.w3.org/2000/svg">
<path d="M10.9258 2.68328C11.5809 2.26638 12.4191 2.26638 13.0742 2.68328L23 8.99969V10.9997C23 11.552 22.5523 11.9997 22 11.9997H20V17.9997C20 19.6565 18.6569 20.9997 17 20.9997H7C5.34315 20.9997 4 19.6565 4 17.9997V11.9997H2C1.44772 11.9997 1 11.552 1 10.9997V8.99969L10.9258 2.68328ZM6 17.9997C6 18.552 6.44772 18.9997 7 18.9997H8V16.9997C8 15.3423 9.34363 13.9997 11 13.9997H13C14.6567 13.9997 15.9997 15.3431 16 16.9997V18.9997H17C17.5523 18.9997 18 18.552 18 17.9997V11.9997H6V17.9997ZM11 15.9997C10.4472 15.9997 10 16.4479 10 16.9997V18.9997H14V16.9997C13.9997 16.4476 13.5521 15.9997 13 15.9997H11ZM3.1543 9.99969H20.8457L12 4.37078L3.1543 9.99969Z" fill="#141414"/>
</svg>
