<svg width="24" height="24" viewBox="0 0 24 24" fill="none" xmlns="http://www.w3.org/2000/svg">
<path d="M14 2C15.6569 2 17 3.34315 17 5V6H19C20.6569 6 22 7.34315 22 9V17C22 18.6569 20.6569 20 19 20H5C3.34315 20 2 18.6569 2 17V9C2 7.34315 3.34315 6 5 6H7V5C7 3.34315 8.34315 2 10 2H14ZM4 17C4 17.5523 4.44772 18 5 18H19C19.5523 18 20 17.5523 20 17V13H17V15H15V13H9V15H7V13H4V17ZM5 8C4.44772 8 4 8.44772 4 9V11H20V9C20 8.44772 19.5523 8 19 8H5ZM10 4C9.44772 4 9 4.44772 9 5V6H15V5C15 4.44772 14.5523 4 14 4H10Z" fill="#141414"/>
</svg>
