<svg id="I117:47963;4244:114880;4244:111917;4704:78936;4703:80935;3807:597" layer-name="color 1" data-component-name="16/C1/crown-badge_C1" style="width:16px;height:16px;flex-shrink:0;position:absolute;left:0px;top:0px" width="17" height="16" viewBox="0 0 17 16" fill="none" xmlns="http://www.w3.org/2000/svg">
<path d="M7.92163 0.411034C8.26809 0.165397 8.73191 0.165398 9.07837 0.411034L9.99903 1.06377C10.1941 1.20208 10.4323 1.2659 10.6704 1.24366L11.7941 1.13871C12.2169 1.09921 12.6186 1.33112 12.7959 1.71708L13.2668 2.74269C13.3666 2.96002 13.541 3.13438 13.7583 3.23417L14.7839 3.70512C15.1699 3.88234 15.4018 4.28403 15.3623 4.70689L15.2573 5.83057C15.2351 6.06867 15.2989 6.30686 15.4372 6.50194L16.0899 7.4226C16.3356 7.76906 16.3356 8.23289 16.0899 8.57935L15.4372 9.50001C15.2989 9.69509 15.2351 9.93328 15.2573 10.1714L15.3623 11.2951C15.4018 11.7179 15.1699 12.1196 14.7839 12.2968L13.7583 12.7678C13.541 12.8676 13.3666 13.0419 13.2668 13.2593L12.7959 14.2849C12.6186 14.6708 12.2169 14.9027 11.7941 14.8632L10.6704 14.7583C10.4323 14.736 10.1941 14.7999 9.99903 14.9382L9.07837 15.5909C8.73191 15.8366 8.26809 15.8366 7.92163 15.5909L7.00097 14.9382C6.80588 14.7999 6.5677 14.736 6.32959 14.7583L5.20591 14.8632C4.78305 14.9027 4.38137 14.6708 4.20414 14.2849L3.7332 13.2593C3.63341 13.0419 3.45904 12.8676 3.24172 12.7678L2.2161 12.2968C1.83015 12.1196 1.59823 11.7179 1.63773 11.2951L1.74269 10.1714C1.76493 9.93328 1.7011 9.69509 1.56279 9.50001L0.910057 8.57935C0.664421 8.23289 0.664421 7.76906 0.910058 7.4226L1.56279 6.50194C1.7011 6.30686 1.76493 6.06867 1.74269 5.83057L1.63773 4.70689C1.59823 4.28403 1.83015 3.88234 2.2161 3.70512L3.24172 3.23417C3.45904 3.13438 3.63341 2.96002 3.7332 2.74269L4.20414 1.71708C4.38137 1.33112 4.78305 1.09921 5.20591 1.13871L6.3296 1.24366C6.5677 1.2659 6.80588 1.20208 7.00097 1.06377L7.92163 0.411034Z" fill="#1BA136"/>
</svg>