<svg id="I117:47963;4244:114880;4147:94556;29:20528" layer-name="Health & Sport/icerink" data-component-name="Health & Sport/icerink" style="width:32px;height:32px;flex-shrink:0;position:absolute;left:0px;top:0px" width="33" height="32" viewBox="0 0 33 32" fill="none" xmlns="http://www.w3.org/2000/svg">
<path fill-rule="evenodd" clip-rule="evenodd" d="M5 27H10.5V24H6.5H5.5H5C4.173 24 3.5 24.673 3.5 25.5C3.5 26.327 4.173 27 5 27ZM7.5 22H26.5C27.052 22 27.5 21.552 27.5 21V5H18.302L17.413 9H21.5V11H16.97L16.723 12.111C16.493 13.135 15.735 13.975 14.743 14.307L13.765 14.633L14.948 18.184L13.052 18.816L11.868 15.265L9.552 16.036C8.324 16.446 7.5 17.59 7.5 18.883V22ZM12.5 27H21.5V24H12.5V27ZM30.816 27.948C28.723 28.646 26.543 29 24.338 29H5C3.07 29 1.5 27.43 1.5 25.5C1.5 23.57 3.07 22 5 22H5.5V18.883C5.5 16.728 6.874 14.821 8.919 14.14L14.109 12.41C14.44 12.299 14.693 12.018 14.771 11.677L16.698 3H29.5V21C29.5 22.654 28.154 24 26.5 24H23.5V27H24.338C26.327 27 28.294 26.681 30.184 26.052L30.816 27.948ZM25.5 15V17C25.005 17 23.5 17 23.5 20H21.5C21.5 16.869 22.995 15 25.5 15Z" fill="#1BA136"/>
</svg>